<svg xmlns="http://www.w3.org/2000/svg" xmlns:xlink="http://www.w3.org/1999/xlink" viewBox="0 0 382.62 437.63"><defs><style>.cls-1{fill:url(#linear-gradient);}.cls-2{fill:#fff;}</style><linearGradient id="linear-gradient" x1="191.17" x2="191.17" y2="439" gradientUnits="userSpaceOnUse"><stop offset="0" stop-color="#40286f"/><stop offset="0.17" stop-color="#6b3971"/><stop offset="0.36" stop-color="#db4d6e"/><stop offset="0.55" stop-color="#ec7d5c"/><stop offset="0.74" stop-color="#e79f46"/><stop offset="0.74" stop-color="#d8973c"/><stop offset="0.74" stop-color="#f1b456"/><stop offset="0.74" stop-color="#771e3c"/><stop offset="0.81" stop-color="#b1323c"/><stop offset="0.89" stop-color="#c75555"/><stop offset="1" stop-color="#f6c070"/></linearGradient></defs><g id="Layer_2" data-name="Layer 2"><g id="Layer_2-2" data-name="Layer 2"><polygon class="cls-1" points="191.28 0 0 320.42 191.28 437.63 382.34 320.42 191.28 0"/><path class="cls-2" d="M382.61,320.39H357.88V284.68c.81-.53,1.6-1.11,2.39-1.7l-2.37-4,0,0V279L353.13,271V282.2a36.31,36.31,0,0,1-18.12,5,33.55,33.55,0,0,1-5.58-.49V269.66A106,106,0,0,0,341,250.77l-2.82-4.72c-6.68,14.73-15.37,26.35-25.32,33.43-14.75-10.67-27-31.69-33.68-58.77V159.82l-13.88,0v7.9H234v-7.9l-14.12,0v61.25l0,.08v10c-6.78,21.67-17.26,38.5-29.56,47.87-13.92-11.25-25.2-33.26-31-61.39V173.66H145.39v7.91H114.05v-7.91H100v53.2c-6.68,24.56-18.27,43.25-32.38,52.95C58,273.14,49.58,262.24,43,248.4l-2.78,4.65A103.28,103.28,0,0,0,50.7,269.71v17.08a35.18,35.18,0,0,1-23.77-4.6v-7l-5.38,9,.63.44v35.8H0l22.25,13.64h77.84V367.5h-5.3v4.19h69.8V367.5h-5.3V334.15H219.9V367.5h-5.3v4.19h69.8V367.5h-5.3V334.13h81.14l22.38-13.71Zm-331.91.08H26.93V287.42A39.7,39.7,0,0,0,45.07,292a40.65,40.65,0,0,0,5.63-.39Zm33.2-49.62A105.94,105.94,0,0,0,100,242.09v43.7a37.27,37.27,0,0,1-10.25,1.45,34.81,34.81,0,0,1-5.87-.52Zm-28.46,4.4a66,66,0,0,0,8,7.17,41.41,41.41,0,0,1-8,3.31Zm23.71,45.22H55.44V290.62a45.86,45.86,0,0,0,12.25-5.26,45.4,45.4,0,0,0,11.46,5.11Zm0-34.91a40.26,40.26,0,0,1-7.2-3.07,62.9,62.9,0,0,0,7.2-6.32Zm4.75,34.91v-29a38.31,38.31,0,0,0,5.87.48,41.92,41.92,0,0,0,10.25-1.3v29.8Zm30.15-95.16h31.36V227A143.4,143.4,0,0,1,140.76,241H118.58A144.1,144.1,0,0,1,114.05,227Zm18,59.13h13.32v35.95H132Zm-2.52-21.94q-2.42-3.62-4.61-7.68h9.38Q132,258.88,129.49,262.5Zm6.21,8.11c-1.14-1.29-2.26-2.64-3.34-4.06a102.26,102.26,0,0,0,7.22-11.74h5.83v15.8Zm-21.65-15.78h5.59a101,101,0,0,0,7,11.63q-1.7,2.19-3.5,4.16h-9Zm0,36.25,0-6.62,0,0h13.17v35.95H114.05Zm31.36,76.42H114.05V334.11h31.36Zm.08-160.21-.08,4H114.05v-15.8h31.44Zm32.75,66a64.55,64.55,0,0,0,8.09,8.37,38.87,38.87,0,0,1-8.09,3.82Zm-4.75,47.05H159.28V291a38,38,0,0,0,14.21.56Zm0-33.65a31.77,31.77,0,0,1-5.59.52,34.64,34.64,0,0,1-8.62-1.09V236.3a124.06,124.06,0,0,0,14.21,30.52ZM202,320.37H178.24V290.51a43.81,43.81,0,0,0,12.15-5.65A40.41,40.41,0,0,0,202,290.53Zm0-34.75a35.86,35.86,0,0,1-7.58-3.65A65,65,0,0,0,202,274.8Zm17.93,16.68-.06,0v18H206.7V291.59a32,32,0,0,0,4.8.38,33.32,33.32,0,0,0,8.38-1.07Zm0-16.36a27.89,27.89,0,0,1-13.18.89V269a109.79,109.79,0,0,0,13.18-23.83Zm13.88-74.61.06,0h31.12q-1.45,8.25-3.51,15.87H236.37Zm7,59.28a60.44,60.44,0,0,1-7,7.26v-7.26Zm-7-13.79V241h2a127.5,127.5,0,0,0,7.39,15.87ZM247,270.61h.14v49.9H233.82V284A64.13,64.13,0,0,0,247,270.61ZM240.85,241H257a124.36,124.36,0,0,1-7.12,15.87h-1.28A120.76,120.76,0,0,1,240.85,241Zm11,29.76a67.37,67.37,0,0,0,13.33,12.7v37h-.06v.14H251.85Zm6.17-.1h7.16v6.85A63.63,63.63,0,0,1,258,270.61Zm-2.59-13.79A133.05,133.05,0,0,0,262.21,241h3v15.87Zm9.75,110.68H233.82V334.11h31.36Zm0-170H233.82v-15.8H265.2Zm35.71,77.9a62.61,62.61,0,0,0,7.59,6.93,40.25,40.25,0,0,1-7.59,3.27Zm-4.75,45h-17v-7.8l0-22.27A39.43,39.43,0,0,0,290.3,292a38.08,38.08,0,0,0,5.86-.48Zm0-33.66a35.75,35.75,0,0,1-5.86.51,34.88,34.88,0,0,1-11.15-1.87l0-47.88c4.48,12.73,10.26,23.65,17,32.3Zm28.52,33.66H300.91V290.48a45.32,45.32,0,0,0,11.75-5.29,44.63,44.63,0,0,0,12,5.37Zm0-34.81a39.73,39.73,0,0,1-7.66-3.43,66.65,66.65,0,0,0,7.66-6.95Zm28.45,34.81h-23.7V291.57a38.58,38.58,0,0,0,23.7-4.14Z"/><path class="cls-2" d="M150.88,137.26a20.69,20.69,0,0,1,19.87-7.3c-5.69-3.1-12.76-3.41-17.42.23-5.19-5-13-6-21.25-4.52C142.54,126.67,147.51,131.05,150.88,137.26Z"/><path class="cls-2" d="M187.7,158.3a20.63,20.63,0,0,1,19.87-7.3c-5.69-3.08-12.78-3.38-17.42.25-5.19-5-13-6-21.27-4.52C179.36,147.73,184.33,152.12,187.7,158.3Z"/><circle class="cls-2" cx="191.2" cy="97.61" r="14.66"/></g></g></svg>